<svg id="Layer_1" enable-background="new 0 0 511.961 511.961" height="512" viewBox="0 0 511.961 511.961" width="512" xmlns="http://www.w3.org/2000/svg"><path d="m509.986 288.561-43.029-100.63c-2.518-5.889-8.306-9.709-14.711-9.709-11.072 0-381.459 0-392.531 0-6.405 0-12.193 3.82-14.711 9.709l-43.03 100.63c-4.104 9.6 1.95 20.516 12.28 22.105l29.461 4.53v117.882c0 6.956 4.494 13.115 11.118 15.237l196.266 62.882c3.075.985 6.476 1.048 9.754 0 5.851-1.87 187.782-60.161 196.276-62.882 6.624-2.122 11.118-8.281 11.118-15.237v-117.881l29.461-4.53c10.317-1.588 16.387-12.496 12.278-22.106zm-470.478-6.387 30.766-71.951h163.129l-33.908 96.55zm200.472 191.859-164.266-52.629v-101.288c141.228 21.714 132.667 20.489 134.486 20.489 6.697 0 12.809-4.216 15.086-10.699l14.694-41.839zm196.266-52.629-164.266 52.629v-185.966l14.694 41.839c2.277 6.484 8.388 10.699 15.086 10.699 1.889 0-8.416 1.483 134.486-20.489zm-123.781-114.632-33.908-96.55h163.129l30.766 71.951z"/><path d="m382.257 88.002c3.036-5.064 3.036-11.389 0-16.453-57.008-95.097-195.186-95.698-252.554 0-3.036 5.064-3.036 11.389 0 16.453 56.819 94.785 195.141 95.777 252.554 0zm-32.87-8.227c-11.75 16.264-27.637 29.34-46.037 37.643 17.559-22.051 17.591-53.194-.001-75.284 18.318 8.262 34.239 21.312 46.038 37.641zm-93.407-28.544c15.74 0 28.545 12.806 28.545 28.545s-12.805 28.545-28.545 28.545-28.545-12.806-28.545-28.545 12.805-28.545 28.545-28.545zm-47.368-9.097c-17.559 22.05-17.592 53.193-.001 75.284-18.363-8.285-34.263-21.345-46.037-37.643 11.768-16.288 27.673-29.359 46.038-37.641z"/></svg>